PathFileType	4	(X/Y/Z)	C:\Users\Admin\Desktop\Capture Files\05302019 Reflex Trials\AcheillesTrialStatic_1-Unnamed.trc
DataRate	CameraRate	NumFrames	NumMarkers	Units	OrigDataRate	OrigDataStartFrame	OrigNumFrames
300.00	300.00	      24	0	mm	300.00	1	      1130
Frame#	Time	
		

1	0.000	111.82419	242.88373	383.20398	149.27559	203.86890	236.05913	99.52731	156.18997	304.15262	88.65453	134.90366	368.11304	200.49907	-309.32770	927.99365	145.47630	355.69943	155.19536	-231.44801	210.13564	318.57251	-214.59613	-217.45961	666.00269	288.33408	-317.02344	1020.10120	72.92087	245.50648	246.33362	279.72803	-141.40074	964.36792				124.79556	309.80505	207.74597							91.59425	245.44600	565.43823	113.54326	254.52234	320.56049	
2	0.003	111.81757	242.88445	383.20370	149.27863	203.88689	236.07056	99.49208	156.17726	304.14374				200.49698	-309.34192	928.00665	145.50302	355.69043	155.19850	-231.43925	210.12425	318.56931	-214.62373	-217.44714	666.01294	288.33865	-317.05200	1020.09631	72.89881	245.51753	246.34007	279.75507	-141.40627	964.38031	89.81173	133.67249	368.25327	124.80044	309.79825	207.73801							91.59888	245.44496	565.42365	113.54660	254.52608	320.56189	
3	0.007	111.82127	242.87764	383.20810	149.27782	203.87817	236.04402	99.04578	156.71904	304.06216				200.51015	-309.35220	928.01471	145.50879	355.69122	155.19743	-231.43268	210.13730	318.57407	-214.62967	-217.47226	666.03619	288.37897	-317.06790	1020.08777	72.92382	245.50714	246.33212	279.74506	-141.40305	964.36487	88.69427	134.88968	368.07684	124.80156	309.79306	207.74292							91.60772	245.43993	565.42755	113.56806	254.52219	320.56793	
4	0.010	111.83531	242.86951	383.20441	149.27846	203.87206	236.07428	88.71947	134.89503	368.08890	99.51548	156.18164	304.13489	200.49660	-309.33649	928.01440	145.50166	355.67352	155.19675	-231.41158	210.13168	318.56439	-214.62173	-217.43272	666.03583	288.37564	-317.03091	1020.09552	72.91284	245.49487	246.31551	279.74234	-141.40759	964.34296				124.81385	309.79922	207.74100							91.61218	245.43143	565.42834	113.57159	254.51270	320.56476	
5	0.013	111.82393	242.86215	383.20782	149.30165	203.87372	236.06612				99.54044	156.17329	304.13702	200.49704	-309.32889	928.02985	145.51418	355.67932	155.19562	-231.40370	210.14413	318.56775	-214.61008	-217.43959	666.02783	288.37036	-317.08386	1020.09705	72.92333	245.50587	246.33603	279.76788	-141.41386	964.34045	89.82253	133.65480	368.24899	124.81666	309.79056	207.75230							91.61234	245.44069	565.43427	113.57481	254.50928	320.56085	
6	0.017	111.83932	242.85733	383.19189	149.32234	203.87199	236.08206				99.54319	156.18222	304.13879	200.53137	-309.39066	928.02582	145.53593	355.67096	155.19560	-231.38696	210.14082	318.57538	-214.63470	-217.46199	666.02869	288.35733	-317.02362	1020.10773	72.92739	245.49509	246.33707	279.78973	-141.39459	964.34308	89.82861	133.64388	368.25098	124.82716	309.78769	207.74223							91.61355	245.43997	565.42731	113.56779	254.50037	320.56558	
7	0.020	111.84948	242.85641	383.19821	149.33026	203.85170	236.06056				99.54306	156.17082	304.12537	200.52734	-309.37192	928.01825	145.52878	355.66745	155.19638	-231.37337	210.14645	318.57065	-214.61707	-217.45375	666.02808	288.38309	-317.08566	1020.08777	72.92839	245.50343	246.33252	279.79724	-141.39897	964.33136	89.84070	133.64790	368.24048	124.83417	309.78119	207.73799							91.61971	245.42448	565.43243	113.58578	254.49738	320.56387	
8	0.023	111.87324	242.86067	383.20035	149.31914	203.87926	236.07480				99.55136	156.17317	304.14212	200.50488	-309.32800	928.02057	145.54854	355.67346	155.20778	-231.36775	210.15047	318.56345	-214.65225	-217.44827	666.01495	288.37839	-317.09021	1020.10693	72.94579	245.49013	246.34996	279.79950	-141.38980	964.32458	88.71107	134.86871	368.11472	124.84779	309.78439	207.74522							91.64301	245.42580	565.42291	113.57491	254.49767	320.56021	
9	0.027	111.87350	242.85558	383.19244	149.32129	203.83292	236.05339	89.84669	133.62773	368.25079	99.56589	156.16461	304.13766	200.50943	-309.37000	928.03906	145.55252	355.65216	155.19942	-231.34912	210.14868	318.56589	-214.61174	-217.45702	666.02368	288.38062	-317.07846	1020.10956	72.92352	245.51126	246.33623	279.81226	-141.38762	964.32935				124.83784	309.76361	207.73817							91.63966	245.42316	565.42737	113.58849	254.49585	320.56454	
10	0.030	111.86452	242.84378	383.21066	149.31812	203.83688	236.05373	89.84873	133.62549	368.26031	99.56479	156.15349	304.14157	200.50887	-309.35278	928.06689	145.55876	355.66492	155.19955	-231.34634	210.16042	318.56943	-214.58380	-217.45587	666.03290	288.36633	-316.98593	1020.10486	72.96094	245.48512	246.32190	279.80777	-141.38164	964.32092				124.83153	309.77353	207.74437							91.65560	245.42438	565.41980	113.59381	254.48012	320.56818	
11	0.033	111.86596	242.84023	383.20581	149.34763	203.84991	236.06281	89.84908	133.62653	368.24460	99.58017	156.14369	304.14560	200.48735	-309.33914	928.07513	145.57346	355.65140	155.19971	-231.33066	210.15024	318.57773	-214.60991	-217.45525	666.04340	288.39285	-317.04752	1020.12012	72.95417	245.47710	246.32787	279.82281	-141.38655	964.29785				124.84441	309.75955	207.74228							91.64947	245.41869	565.41602	113.60709	254.48235	320.56897	
12	0.037	111.87992	242.83627	383.18979	149.31451	203.83086	236.07545	88.73182	134.86801	368.09894	99.10778	156.68683	304.10165	200.49287	-309.32886	928.05804	145.56163	355.63239	155.19174	-231.32545	210.15257	318.57166	-214.60345	-217.45509	666.02606	288.36298	-317.00916	1020.12762	72.94441	245.49380	246.33603	279.83679	-141.37581	964.31262				124.85553	309.76468	207.74597							91.66027	245.42123	565.42804	113.61199	254.47261	320.55942	
13	0.040	111.88078	242.82631	383.19647	149.32634	203.82071	236.06113							200.48903	-309.34967	928.06390	145.56937	355.64273	155.19899	-231.31535	210.15825	318.56638	-214.61406	-217.44714	666.04077	288.36850	-317.02991	1020.10211	72.95755	245.47398	246.33807	279.84671	-141.36710	964.29987	89.87785	133.62299	368.25876	124.86379	309.75549	207.74127	99.57648	156.13808	304.15106				91.66219	245.41406	565.42676	113.59571	254.47343	320.55746	
14	0.043	111.85917	242.83899	383.19571	149.32657	203.81906	236.07089							200.51257	-309.35812	928.07086	145.58415	355.63763	155.19814	-231.31189	210.14996	318.57263	-214.61272	-217.46841	666.00769	288.41806	-317.08478	1020.10846	72.97193	245.46660	246.32616	279.85715	-141.36354	964.29755	89.87370	133.62752	368.23352	124.86164	309.75238	207.74310	99.57584	156.15388	304.14957				91.67496	245.42166	565.42310	113.59722	254.46292	320.56039	
15	0.047	111.88344	242.83408	383.19650	149.34900	203.82249	236.06589							200.47719	-309.27072	928.10114	145.58960	355.63437	155.20142	-231.28943	210.15929	318.55994	-214.62349	-217.43947	666.00659	288.39230	-317.06580	1020.08435	72.96193	245.47841	246.33336	279.87714	-141.35739	964.29034	88.77061	134.86041	368.11292	124.87589	309.74069	207.73091	99.58360	156.15511	304.15732				91.66854	245.41985	565.42804	113.61491	254.47035	320.55957	
16	0.050	111.89474	242.82628	383.20691	149.36195	203.81857	236.08838	89.87521	133.60989	368.26273				200.51393	-309.37454	928.06909	145.59001	355.62265	155.19344	-231.29369	210.15636	318.56769	-214.61389	-217.43161	666.01245	288.40491	-317.04077	1020.07092	72.95888	245.46353	246.33488	279.85895	-141.36009	964.28760				124.88814	309.73868	207.73813	99.53919	156.14166	304.13608				91.66764	245.41582	565.42847	113.60023	254.46857	320.56216	
17	0.053	111.89407	242.82262	383.20197	149.33475	203.80292	236.05669	88.76765	134.85066	368.10577				200.50232	-309.35556	928.09473	145.59375	355.62277	155.19150	-231.28148	210.14711	318.57260	-214.57823	-217.44897	666.02960	288.42334	-317.04324	1020.08228	72.96841	245.45218	246.32845	279.86270	-141.37212	964.29803				124.87386	309.74527	207.74130	99.15195	156.69435	304.09219				91.66909	245.41437	565.42017	113.61814	254.45718	320.55722	
18	0.057	111.88440	242.83186	383.20364	149.33247	203.80757	236.06770				89.85730	133.60680	368.24957	200.52029	-309.37958	928.07953	145.58862	355.61450	155.19873	-231.27812	210.15277	318.56589	-214.58034	-217.43813	666.00940	288.41272	-317.02481	1020.09735	72.97764	245.46916	246.33974	279.86646	-141.36418	964.28790	99.59618	156.14175	304.15213	124.87682	309.73883	207.74432							91.69008	245.40601	565.42889	113.62491	254.45564	320.54935	
19	0.060	111.88644	242.81651	383.19711	149.34528	203.80185	236.06535				89.88660	133.60350	368.26108	200.47070	-309.27490	928.09845	145.59888	355.61859	155.18948	-231.26627	210.14607	318.55841	-214.58200	-217.42828	666.02716	288.40207	-317.01584	1020.11676	72.97442	245.44855	246.32877	279.90076	-141.35374	964.28296	99.61013	156.14899	304.16336	124.89220	309.72726	207.74129							91.69053	245.40405	565.42780	113.61884	254.47105	320.56787	
20	0.063	111.89378	242.81322	383.20200	149.32280	203.79683	236.06168				88.75856	134.82581	368.12045	200.49463	-309.32321	928.09821	145.60434	355.61227	155.20467	-231.26033	210.15662	318.57144	-214.58920	-217.44926	666.01526	288.42279	-317.06030	1020.07965	72.97750	245.45033	246.32002	279.90158	-141.36340	964.28918	99.13370	156.67569	304.09811	124.89929	309.72208	207.73515							91.69123	245.39589	565.42157	113.61197	254.45566	320.55490	
21	0.067	111.90138	242.81204	383.19778	149.36385	203.80379	236.07219	99.60725	156.13225	304.14969	88.77261	134.82028	368.11218	200.49599	-309.34103	928.08752	145.58807	355.60861	155.19460	-231.26303	210.14441	318.55939	-214.58978	-217.43127	665.99402	288.45160	-317.08896	1020.07904	72.97452	245.46033	246.32701	279.89758	-141.36382	964.28326				124.87712	309.72809	207.73862							91.68606	245.40266	565.43054	113.61709	254.45375	320.56293	
22	0.070	111.90744	242.81268	383.20468	149.34659	203.80443	236.07268	99.62106	156.13840	304.16565				200.47823	-309.28088	928.10083	145.59901	355.59576	155.18776	-231.25328	210.15141	318.56570	-214.58890	-217.41931	665.98676	288.46198	-317.14569	1020.06714	72.97734	245.47395	246.32964	279.89172	-141.36885	964.26666	89.85452	133.60498	368.24417	124.88939	309.73206	207.74324							91.70215	245.40173	565.42267	113.63142	254.45105	320.57230	
23	0.073	111.90118	242.80223	383.19943	149.35240	203.80228	236.05257	99.15537	156.68600	304.09628				200.50926	-309.35861	928.08984	145.59085	355.59613	155.19075	-231.24646	210.14656	318.56107	-214.57861	-217.44766	666.00897	288.44162	-317.09976	1020.08630	72.97739	245.42740	246.34270	279.91647	-141.36583	964.25604	89.88520	133.60861	368.25772	124.89611	309.72571	207.74103							91.69038	245.40147	565.42224	113.63036	254.45979	320.56973	
24	0.077	111.89254	242.79744	383.19662	149.33965	203.79002	236.07365	99.15679	156.67232	304.10812				200.49577	-309.32089	928.09650	145.60736	355.58884	155.18681	-231.25304	210.14030	318.57037	-214.57684	-217.44933	665.99261	288.46729	-317.10159	1020.05408	72.97355	245.44411	246.34663	279.93378	-141.34698	964.27295	89.86872	133.61226	368.24759	124.87598	309.71024	207.73843							91.69440	245.39827	565.43292	113.62734	254.45044	320.56900	
